<svg width="40" height="40" viewBox="0 0 40 40" fill="none" xmlns="http://www.w3.org/2000/svg">
<circle cx="20" cy="20" r="19.5" stroke="#E4E7EC"/>
<path d="M20.3234 6C16.2928 6 13.0254 9.26747 13.0254 13.298C13.0254 17.3286 16.2928 20.5962 20.3234 20.5962C24.354 20.5962 27.6213 17.3286 27.6213 13.298C27.6213 9.26747 24.354 6 20.3234 6ZM20.3234 16.315C18.6572 16.315 17.3065 14.9642 17.3065 13.2981C17.3065 11.632 18.6572 10.2813 20.3234 10.2813C21.9895 10.2813 23.3402 11.632 23.3402 13.2981C23.3402 14.9642 21.9895 16.315 20.3234 16.315Z" fill="#929EAA"/>
<path d="M22.8987 26.4031C25.8204 25.8079 27.5712 24.4243 27.6638 24.3501C28.5188 23.6644 28.6561 22.4156 27.9705 21.5605C27.2849 20.7056 26.0361 20.5682 25.181 21.2538C25.1629 21.2684 23.2956 22.7009 20.2231 22.703C17.1507 22.7009 15.2439 21.2684 15.2258 21.2538C14.3707 20.5682 13.1219 20.7056 12.4364 21.5605C11.7507 22.4156 11.8881 23.6644 12.743 24.3501C12.8369 24.4254 14.66 25.845 17.6635 26.4262L13.4775 30.8009C12.7168 31.5899 12.7396 32.846 13.5286 33.6068C13.9136 33.9781 14.4099 34.1626 14.9058 34.1626C15.4257 34.1626 15.9451 33.9595 16.3344 33.5556L20.2232 29.413L24.5048 33.5824C25.2805 34.357 26.5367 34.3557 27.311 33.5803C28.0853 32.8047 28.0844 31.5483 27.3088 30.774L22.8987 26.4031Z" fill="#929EAA"/>
<path d="M20.2238 22.7029C20.2199 22.7029 20.2276 22.703 20.2238 22.703C20.22 22.703 20.2277 22.7029 20.2238 22.7029Z" fill="#929EAA"/>
</svg>
