<svg width="40" height="40" viewBox="0 0 40 40" fill="none" xmlns="http://www.w3.org/2000/svg">
    <path d="M0.5 20C0.5 9.23049 9.23047 0.5 20.0002 0.5C30.7696 0.5 39.5 9.23048 39.5 20C39.5 30.7695 30.7696 39.5 20.0002 39.5C9.23047 39.5 0.5 30.7695 0.5 20Z" stroke="#E4E7EC"/>
    <path d="M20.0295 16.0219L20.0697 16.6758L19.3978 16.5957C16.9524 16.2887 14.816 15.2478 13.0021 13.4996L12.1152 12.632L11.8869 13.2726C11.4031 14.7006 11.7121 16.2086 12.7199 17.2228C13.2574 17.7833 13.1365 17.8635 12.2094 17.5299C11.8869 17.423 11.6047 17.343 11.5777 17.383C11.4838 17.4766 11.8063 18.691 12.0615 19.1713C12.4109 19.8387 13.1231 20.4926 13.9024 20.8796L14.5608 21.1865L13.7815 21.1998C13.0289 21.1998 13.0021 21.2132 13.0826 21.4936C13.3514 22.3609 14.4129 23.2819 15.5953 23.6822L16.4283 23.9625L15.7027 24.3894C14.6279 25.0033 13.3648 25.3504 12.1018 25.3769C11.4971 25.3904 11 25.4438 11 25.4838C11 25.6172 12.6393 26.3646 13.5934 26.6582C16.4553 27.5256 19.8546 27.152 22.4076 25.6707C24.2217 24.6164 26.0356 22.5211 26.882 20.4926C27.3388 19.4115 27.7959 17.4364 27.7959 16.4889C27.7959 15.875 27.8361 15.7949 28.5884 15.0609C29.0321 14.634 29.4484 14.1668 29.529 14.0334C29.6634 13.7799 29.65 13.7799 28.9649 14.0066C27.8226 14.407 27.6615 14.3537 28.2258 13.7531C28.6423 13.326 28.9649 12.405 28.9649 12.1783C28.9649 12.1783 28.9378 12.3517 28.7095 12.4719C28.4676 12.6055 27.9302 12.8055 27.5271 12.9256L26.8015 13.1525L26.1431 12.7121C25.7802 12.4719 25.2697 12.2051 25.001 12.125C24.3156 11.9381 23.2676 11.9648 22.6497 12.1783C20.97 12.7789 19.9084 14.3269 20.0295 16.0219Z" fill="#929EAA"/>
</svg>
