<svg width="32" height="32" viewBox="0 0 32 32" fill="none" xmlns="http://www.w3.org/2000/svg">
<circle cx="16" cy="16" r="16" fill="#2F8AF2"/>
<path d="M16.9683 21.8281C17.4758 21.8281 17.6833 21.4898 17.6775 21.0656C17.6517 19.4681 18.2725 18.6081 19.3933 19.7289C20.6333 20.9689 20.89 21.8281 22.3958 21.8281H25.0625C25.7358 21.8281 26.0008 21.6114 26.0008 21.2714C26.0008 20.5523 24.8167 19.2831 23.8133 18.3514C22.4083 17.0473 22.3425 17.0164 23.5525 15.4464C25.0533 13.4973 27.0167 10.9998 25.28 10.9998H21.9625C21.3192 10.9998 21.2725 11.3623 21.0433 11.9023C20.2142 13.8581 18.6383 16.3914 18.04 16.0039C17.4142 15.5998 17.7008 13.9989 17.7483 11.6198C17.7608 10.9914 17.7575 10.5606 16.7975 10.3373C16.2733 10.2164 15.7633 10.1664 15.29 10.1664C13.3958 10.1664 12.0892 10.9606 12.8317 11.0989C14.1408 11.3431 14.015 14.1756 13.71 15.3989C13.1783 17.5289 11.18 13.7123 10.3475 11.8114C10.1467 11.3548 10.085 10.9998 9.36833 10.9998H6.65583C6.24583 10.9998 6 11.1331 6 11.4298C6 11.9314 8.46667 17.0298 10.8217 19.5714C13.1183 22.0506 15.3883 21.8281 16.9683 21.8281Z" fill="white"/>
</svg>
