<svg width="40" height="40" viewBox="0 0 40 40" fill="none" xmlns="http://www.w3.org/2000/svg">
    <circle cx="20" cy="20" r="19.5" stroke="#E4E7EC"/>
    <path d="M20.7104 27.5771C21.3448 27.5771 21.6042 27.1542 21.5969 26.624C21.5646 24.6271 22.3406 23.5521 23.7417 24.9531C25.2917 26.5031 25.6125 27.5771 27.4948 27.5771H30.8281C31.6698 27.5771 32.001 27.3062 32.001 26.8812C32.001 25.9823 30.5208 24.3958 29.2667 23.2312C27.5104 21.601 27.4281 21.5625 28.9406 19.6C30.8167 17.1635 33.2708 14.0417 31.1 14.0417H26.9531C26.149 14.0417 26.0906 14.4948 25.8042 15.1698C24.7677 17.6146 22.7979 20.7812 22.05 20.2969C21.2677 19.7917 21.626 17.7906 21.6854 14.8167C21.701 14.0312 21.6969 13.4927 20.4969 13.2135C19.8417 13.0625 19.2042 13 18.6125 13C16.2448 13 14.6115 13.9927 15.5396 14.1656C17.176 14.4708 17.0188 18.0115 16.6375 19.5406C15.9729 22.2031 13.475 17.4323 12.4344 15.0562C12.1833 14.4854 12.1063 14.0417 11.2104 14.0417H7.81979C7.30729 14.0417 7 14.2083 7 14.5792C7 15.2062 10.0833 21.5792 13.0271 24.7562C15.8979 27.8552 18.7354 27.5771 20.7104 27.5771Z" fill="#929EAA"/>
</svg>
