<svg width="32" height="32" viewBox="0 0 32 32" fill="none" xmlns="http://www.w3.org/2000/svg">
<path fill-rule="evenodd" clip-rule="evenodd" d="M16 32C24.8366 32 32 24.8366 32 16C32 7.16342 24.8366 0 16 0C7.16342 0 0 7.16342 0 16C0 24.8366 7.16342 32 16 32Z" fill="#FC0D1B"/>
<path fill-rule="evenodd" clip-rule="evenodd" d="M8.54083 9.75996C10.084 9.35376 16.2323 9.35376 16.2323 9.35376C16.2323 9.35376 22.3929 9.35376 23.936 9.78458C24.7744 10.0061 25.4426 10.683 25.6613 11.5323C26.0865 13.0954 26.0745 16.3449 26.0745 16.3449C26.0745 16.3449 26.0745 19.5821 25.6613 21.133C25.4426 21.9945 24.7744 22.6591 23.936 22.893C22.3929 23.2991 16.2323 23.2991 16.2323 23.2991C16.2323 23.2991 10.0961 23.2991 8.54083 22.8806C7.70238 22.6468 7.03422 21.9699 6.80333 21.1207C6.40234 19.5821 6.40234 16.3326 6.40234 16.3326C6.40234 16.3326 6.40234 13.0954 6.80333 11.5323C7.03422 10.683 7.71454 9.99381 8.54083 9.75996ZM19.3862 16.3327L14.2707 13.3418V19.3113L19.3862 16.3327Z" fill="white"/>
</svg>
