<?xml version="1.0" encoding="UTF-8"?>
<svg version="1.1" xmlns="http://www.w3.org/2000/svg" width="500" height="161">
<path d="M0 0 C1.65 0 3.3 0 5 0 C5 0.66 5 1.32 5 2 C5.721875 1.649375 6.44375 1.29875 7.1875 0.9375 C10.38276934 -0.12758978 11.80681371 0.09935771 15 1 C15.763125 1.185625 16.52625 1.37125 17.3125 1.5625 C17.869375 1.706875 18.42625 1.85125 19 2 C19 1.34 19 0.68 19 0 C20.65 0 22.3 0 24 0 C24 0.99 24 1.98 24 3 C28.455 2.505 28.455 2.505 33 2 C33 2.99 33 3.98 33 5 C34.32 5.33 35.64 5.66 37 6 C37 5.34 37 4.68 37 4 C38.65 4.33 40.3 4.66 42 5 C42 6.32 42 7.64 42 9 C42.928125 8.79375 43.85625 8.5875 44.8125 8.375 C48 8 48 8 51 10 C51 10.99 51 11.98 51 13 C51.928125 13.061875 52.85625 13.12375 53.8125 13.1875 C57 14 57 14 58.625 16.5 C59.07875 17.325 59.5325 18.15 60 19 C62.08533633 19.87822312 62.08533633 19.87822312 64 20 C64.99 23.465 64.99 23.465 66 27 C67.98 26.505 67.98 26.505 70 26 C70.61875 27.670625 70.61875 27.670625 71.25 29.375 C72.35546516 31.99320695 72.74880787 32.83493089 75.1875 34.4375 C75.785625 34.623125 76.38375 34.80875 77 35 C77 36.98 77 38.96 77 41 C78.32 41.66 79.64 42.32 81 43 C81 45.31 81 47.62 81 50 C82.32 50.66 83.64 51.32 85 52 C84.67 54.64 84.34 57.28 84 60 C84.66 60 85.32 60 86 60 C86.625 61.875 86.625 61.875 87 64 C86.34 64.66 85.68 65.32 85 66 C85 66.99 85 67.98 85 69 C85.66 69 86.32 69 87 69 C87.20140476 72.62528568 86.85776765 74.86501708 85 78 C85.66 78 86.32 78 87 78 C87 79.65 87 81.3 87 83 C86.34 83 85.68 83 85 83 C85.33 85.97 85.66 88.94 86 92 C85.01 92.33 84.02 92.66 83 93 C83 94.32 83 95.64 83 97 C83.66 97 84.32 97 85 97 C84.67 98.65 84.34 100.3 84 102 C82.68 102 81.36 102 80 102 C80.185625 102.94875 80.37125 103.8975 80.5625 104.875 C81 108 81 108 80 110 C78.68 110 77.36 110 76 110 C76.0309375 111.670625 76.0309375 111.670625 76.0625 113.375 C76 117 76 117 75 119 C72.9375 119.625 72.9375 119.625 71 120 C70.938125 120.78375 70.87625 121.5675 70.8125 122.375 C70.4103125 123.674375 70.4103125 123.674375 70 125 C67.4375 126.3125 67.4375 126.3125 65 127 C65 128.32 65 129.64 65 131 C64.34 131 63.68 131 63 131 C63 131.66 63 132.32 63 133 C61.02 133 59.04 133 57 133 C56.67 134.65 56.34 136.3 56 138 C54.02 138.33 52.04 138.66 50 139 C50 139.99 50 140.98 50 142 C43.25 143 43.25 143 41 143 C40.67 144.32 40.34 145.64 40 147 C37.36 146.67 34.72 146.34 32 146 C32 147.32 32 148.64 32 150 C30.35 150 28.7 150 27 150 C27 149.34 27 148.68 27 148 C25.68 148.33 24.36 148.66 23 149 C23 149.66 23 150.32 23 151 C15.08 151 7.16 151 -1 151 C-1.33 150.34 -1.66 149.68 -2 149 C-2.94875 149.185625 -3.8975 149.37125 -4.875 149.5625 C-8 150 -8 150 -10 149 C-10 148.01 -10 147.02 -10 146 C-11.11375 146.185625 -12.2275 146.37125 -13.375 146.5625 C-17 147 -17 147 -19 146 C-19.33 145.01 -19.66 144.02 -20 143 C-22.31 142.67 -24.62 142.34 -27 142 C-27 140.68 -27 139.36 -27 138 C-28.423125 138.0309375 -28.423125 138.0309375 -29.875 138.0625 C-33 138 -33 138 -35 137 C-35.268125 136.175 -35.53625 135.35 -35.8125 134.5 C-36.204375 133.675 -36.59625 132.85 -37 132 C-39.54775306 131.10613836 -39.54775306 131.10613836 -42 131 C-42.2475 130.030625 -42.495 129.06125 -42.75 128.0625 C-43.36875 126.5465625 -43.36875 126.5465625 -44 125 C-44.66 124.835 -45.32 124.67 -46 124.5 C-46.66 124.335 -47.32 124.17 -48 124 C-48.67939174 122.00428677 -49.34561559 120.00405227 -50 118 C-52.00136244 116.57944932 -52.00136244 116.57944932 -54 116 C-54 114.02 -54 112.04 -54 110 C-55.32 109.34 -56.64 108.68 -58 108 C-58 105.69 -58 103.38 -58 101 C-58.99 101 -59.98 101 -61 101 C-61.79953138 97.71303767 -62.09658936 96.28976808 -61 93 C-61.99 92.34 -62.98 91.68 -64 91 C-64 89.68 -64 88.36 -64 87 C-63.34 87 -62.68 87 -62 87 C-62 85.35 -62 83.7 -62 82 C-62.66 82 -63.32 82 -64 82 C-64 77.38 -64 72.76 -64 68 C-63.34 68 -62.68 68 -62 68 C-62 66.35 -62 64.7 -62 63 C-62.66 63 -63.32 63 -64 63 C-64 61.68 -64 60.36 -64 59 C-62.68 59 -61.36 59 -60 59 C-60.37125 57.906875 -60.7425 56.81375 -61.125 55.6875 C-61.41375 54.470625 -61.7025 53.25375 -62 52 C-61.34 51.01 -60.68 50.02 -60 49 C-59.01 49 -58.02 49 -57 49 C-57.185625 48.05125 -57.37125 47.1025 -57.5625 46.125 C-58 43 -58 43 -57 41 C-55.68 41 -54.36 41 -53 41 C-53.103125 39.906875 -53.20625 38.81375 -53.3125 37.6875 C-53.209375 36.470625 -53.10625 35.25375 -53 34 C-50.5625 32.375 -50.5625 32.375 -48 31 C-47.7525 29.7315625 -47.7525 29.7315625 -47.5 28.4375 C-47.335 27.633125 -47.17 26.82875 -47 26 C-44.4375 24.6875 -44.4375 24.6875 -42 24 C-42 22.68 -42 21.36 -42 20 C-38.91190305 18.23537317 -37.76687864 18 -34 18 C-34.33 17.01 -34.66 16.02 -35 15 C-33 13 -33 13 -30.375 12.875 C-29.59125 12.91625 -28.8075 12.9575 -28 13 C-27.67 11.68 -27.34 10.36 -27 9 C-25.906875 8.9175 -24.81375 8.835 -23.6875 8.75 C-19.96723336 8.36310791 -19.96723336 8.36310791 -18.0625 5.9375 C-17.5365625 4.9784375 -17.5365625 4.9784375 -17 4 C-14.36 4.33 -11.72 4.66 -9 5 C-9 4.01 -9 3.02 -9 2 C-5.94736336 1.01879536 -4.05263664 1.01879536 -1 2 C-0.67 1.34 -0.34 0.68 0 0 Z " fill="#FF0101" transform="translate(64,5)"/>
<path d="M0 0 C1.175625 0.144375 2.35125 0.28875 3.5625 0.4375 C6.87612838 4.77888477 8.67965357 10.2295035 10.75 15.25 C11.11802734 16.13365234 11.48605469 17.01730469 11.86523438 17.92773438 C12.76780151 20.09623983 13.66677168 22.26616286 14.5625 24.4375 C17.18840527 21.81159473 17.71668688 19.33648844 18.875 15.8125 C23.10230819 3.63672762 23.10230819 3.63672762 26.5625 0.4375 C30.3125 -0.125 30.3125 -0.125 33.5625 0.4375 C34.5625 1.4375 34.5625 1.4375 34.67602539 5.13110352 C34.67586624 6.77621292 34.67016988 8.42132731 34.66015625 10.06640625 C34.6587413 10.93063705 34.65732635 11.79486786 34.65586853 12.68528748 C34.65025239 15.45689292 34.63769719 18.2284188 34.625 21 C34.61998708 22.8743478 34.61542381 24.74869685 34.61132812 26.62304688 C34.60027772 31.22789544 34.5830023 35.83268421 34.5625 40.4375 C31.9225 40.4375 29.2825 40.4375 26.5625 40.4375 C26.0675 31.0325 26.0675 31.0325 25.5625 21.4375 C23.63027628 25.99875509 23.63027628 25.99875509 21.70336914 30.56225586 C19.67361111 35.32638889 19.67361111 35.32638889 18.5625 36.4375 C15.89191149 36.57865161 13.23817762 36.47997107 10.5625 36.4375 C8.5825 32.1475 6.6025 27.8575 4.5625 23.4375 C4.2325 29.0475 3.9025 34.6575 3.5625 40.4375 C0.5925 40.4375 -2.3775 40.4375 -5.4375 40.4375 C-5.48685509 35.06235095 -5.52319802 29.68733315 -5.54736328 24.31201172 C-5.55743484 22.48256127 -5.57109276 20.65312697 -5.58837891 18.82373047 C-5.61257677 16.19755066 -5.62397132 13.57158325 -5.6328125 10.9453125 C-5.64313507 10.12443146 -5.65345764 9.30355042 -5.66409302 8.45779419 C-5.66449184 6.44960858 -5.5599954 4.44194618 -5.4375 2.4375 C-3.4375 0.4375 -3.4375 0.4375 0 0 Z " fill="#161616" transform="translate(174.4375,86.5625)"/>
<path d="M0 0 C2.97 0 5.94 0 9 0 C12.07018221 6.41206197 14.80816383 12.91227957 17.3125 19.5625 C17.57885254 20.26503906 17.84520508 20.96757813 18.11962891 21.69140625 C20 26.74853035 20 26.74853035 20 29 C20.66 29 21.32 29 22 29 C22.10699219 28.33613281 22.21398437 27.67226562 22.32421875 26.98828125 C23.16723536 23.26049103 24.45784655 19.75211426 25.8125 16.1875 C26.07949707 15.47916016 26.34649414 14.77082031 26.62158203 14.04101562 C28.4746486 9.19607669 30.52691954 4.565687 33 0 C39.15234375 -0.09765625 39.15234375 -0.09765625 41 0 C42 1 42 1 42.11352539 4.96899414 C42.1133662 6.74105607 42.10766785 8.5131226 42.09765625 10.28515625 C42.0962413 11.21597519 42.09482635 12.14679413 42.09336853 13.1058197 C42.08775172 16.09141191 42.0751964 19.07693029 42.0625 22.0625 C42.05748716 24.08137913 42.05292388 26.10025943 42.04882812 28.11914062 C42.03777683 33.07945572 42.02050095 38.03971532 42 43 C39.69 43 37.38 43 35 43 C35 33.43 35 23.86 35 14 C34.34 14 33.68 14 33 14 C32.79375 15.19625 32.5875 16.3925 32.375 17.625 C31.36518392 22.04559345 29.95507057 26.27856125 28.3125 30.5 C27.85488281 31.7065625 27.39726563 32.913125 26.92578125 34.15625 C25 37 25 37 21.29296875 37.90625 C19.66294922 37.95265625 19.66294922 37.95265625 18 38 C15.28099144 34.75780029 13.89661638 31.51903815 12.4375 27.5625 C11.81681641 25.89380859 11.81681641 25.89380859 11.18359375 24.19140625 C10.79300781 23.13824219 10.40242188 22.08507812 10 21 C9.34 19.35 8.68 17.7 8 16 C7.67 24.91 7.34 33.82 7 43 C4.69 43 2.38 43 0 43 C0 28.81 0 14.62 0 0 Z " fill="#FFF4F4" transform="translate(75,60)"/>
<path d="M0 0 C3.625 0.4375 3.625 0.4375 5.6015625 2.53125 C7.81471085 5.70998045 9.75773662 8.98693812 11.625 12.375 C12.28945849 13.57284215 12.95611273 14.76946903 13.625 15.96484375 C13.91375 16.48812256 14.2025 17.01140137 14.5 17.55053711 C16.1055496 20.24352601 17.88585974 22.82878961 19.625 25.4375 C19.955 17.1875 20.285 8.9375 20.625 0.4375 C23.265 0.4375 25.905 0.4375 28.625 0.4375 C28.64967609 5.95507479 28.66784856 11.47261761 28.67993164 16.99023438 C28.68496763 18.86816975 28.69179671 20.7461012 28.70043945 22.62402344 C28.71253713 25.31967132 28.71823557 28.01526747 28.72265625 30.7109375 C28.72781754 31.55369232 28.73297882 32.39644714 28.73829651 33.26473999 C28.73887171 39.20975659 28.73887171 39.20975659 27.625 41.4375 C22.72451547 42.38320754 22.72451547 42.38320754 19.625 41.4375 C16.61378739 38.17914683 14.70929013 34.33147616 12.625 30.4375 C11.55384752 28.5606861 10.46954142 26.69194333 9.38305664 24.82397461 C7.77788939 22.03943391 6.20467842 19.2365793 4.625 16.4375 C4.295 24.6875 3.965 32.9375 3.625 41.4375 C0.985 41.4375 -1.655 41.4375 -4.375 41.4375 C-6.4450132 39.3674868 -5.53909695 34.94984075 -5.54296875 32.09765625 C-5.54629715 31.26036484 -5.54962555 30.42307343 -5.55305481 29.56040955 C-5.55812756 27.78580272 -5.56046303 26.01118633 -5.56030273 24.23657227 C-5.56248797 21.51497744 -5.58063633 18.79378857 -5.59960938 16.07226562 C-5.60254342 14.35156389 -5.60452814 12.63086023 -5.60546875 10.91015625 C-5.61265427 10.09241226 -5.61983978 9.27466827 -5.62724304 8.43214417 C-5.59593793 0.72539936 -5.59593793 0.72539936 0 0 Z " fill="#161616" transform="translate(213.375,36.5625)"/>
<path d="M0 0 C1.44342773 0.00483398 1.44342773 0.00483398 2.91601562 0.00976562 C4.34204102 -0.0144043 4.34204102 -0.0144043 5.796875 -0.0390625 C14.62157257 -0.0452293 14.62157257 -0.0452293 18.60351562 3.32226562 C21.01322159 6.77617751 21.84803651 9.31325077 21.47851562 13.44726562 C20.67564507 17.00283521 20.07882303 18.73933616 17.60351562 21.32226562 C18.26351563 21.98226562 18.92351562 22.64226562 19.60351562 23.32226562 C20.22014969 25.23722554 20.75136516 27.1803766 21.22851562 29.13476562 C21.48890625 30.17246094 21.74929688 31.21015625 22.01757812 32.27929688 C22.5526578 35.05814399 22.71812043 37.50402924 22.60351562 40.32226562 C19.96351563 40.32226562 17.32351563 40.32226562 14.60351562 40.32226562 C13.93343222 38.19834056 13.26754765 36.07309038 12.60351562 33.94726562 C12.04664063 32.17222656 12.04664063 32.17222656 11.47851562 30.36132812 C10.60351562 27.32226562 10.60351562 27.32226562 10.60351562 25.32226562 C6.97351563 24.99226563 3.34351563 24.66226563 -0.39648438 24.32226562 C-0.39648438 29.60226563 -0.39648438 34.88226563 -0.39648438 40.32226562 C-3.36648438 40.32226562 -6.33648437 40.32226562 -9.39648438 40.32226562 C-9.44583947 34.94711658 -9.48218239 29.57209878 -9.50634766 24.19677734 C-9.51641922 22.3673269 -9.53007713 20.5378926 -9.54736328 18.70849609 C-9.57156114 16.08231629 -9.5829557 13.45634888 -9.59179688 10.83007812 C-9.60211945 10.00919708 -9.61244202 9.18831604 -9.62307739 8.34255981 C-9.62347622 6.3343742 -9.51897977 4.32671181 -9.39648438 2.32226562 C-6.47954264 -0.59467611 -3.99053781 0.03080415 0 0 Z M-0.39648438 8.32226562 C-0.39648438 11.29226562 -0.39648438 14.26226562 -0.39648438 17.32226562 C1.20730903 17.3764275 2.81162969 17.415132 4.41601562 17.44726562 C5.30933594 17.47046875 6.20265625 17.49367188 7.12304688 17.51757812 C9.85754277 17.50512389 9.85754277 17.50512389 12.60351562 15.32226562 C13.10351562 12.82226562 13.10351562 12.82226562 12.60351562 10.32226562 C9.28980562 8.11312562 8.25891353 8.0974501 4.41601562 8.19726562 C3.06443359 8.22433594 3.06443359 8.22433594 1.68554688 8.25195312 C0.65494141 8.28675781 0.65494141 8.28675781 -0.39648438 8.32226562 Z " fill="#161616" transform="translate(337.396484375,86.677734375)"/>
<path d="M0 0 C5.0320898 4.54115421 8.230868 8.70761706 8.86328125 15.58203125 C8.89164539 24.15745718 8.78203587 30.43254651 3.125 37.25 C-0.99960942 40.56980758 -4.66082072 40.49016456 -9.875 40.5625 C-11.54369141 40.60117188 -11.54369141 40.60117188 -13.24609375 40.640625 C-17.92206028 40.15986467 -20.44378674 38.36299688 -23.625 35 C-28.10529997 28.3567966 -28.32958857 21.07731173 -27.4375 13.3125 C-25.53108507 7.412067 -22.85816785 2.59343054 -17.4375 -0.6875 C-11.62364524 -2.62545159 -5.51641224 -2.70805692 0 0 Z M-16.4375 9.3125 C-19.38580717 15.06871877 -19.20000385 22.05452899 -17.75 28.25 C-15.96192939 31.05982524 -14.53621324 32.07301471 -11.4375 33.3125 C-6.48709691 33.22744126 -6.48709691 33.22744126 -2.5625 30.5 C0.06878674 25.38360912 0.06075054 19.95340791 -0.4375 14.3125 C-1.65353153 10.9076117 -2.42932093 9.02798192 -5.375 6.9375 C-9.99540971 5.53737584 -12.79234122 6.43474307 -16.4375 9.3125 Z " fill="#161616" transform="translate(314.4375,87.6875)"/>
<path d="M0 0 C4.80729318 3.35392547 7.8975438 7.31420274 9.6875 12.875 C10.5478522 22.22714018 10.42696337 30.36846722 4.25 37.8125 C-1.27409526 42.25872302 -8.53370876 41.32241711 -15.3125 40.875 C-19.5785314 39.60267485 -21.37106278 38.13586178 -23.625 34.4375 C-26.96311388 27.39037069 -27.60117314 19.28553206 -25.78125 11.64453125 C-23.80172415 6.77102467 -20.99905064 3.03952306 -16.6875 0.0625 C-10.99489209 -1.94045464 -5.71311855 -1.94030441 0 0 Z M-15.3125 9.875 C-17.80758858 13.61763288 -17.64362659 15.78368692 -17.6875 20.25 C-17.71585938 21.55710937 -17.74421875 22.86421875 -17.7734375 24.2109375 C-17.24756545 28.39117468 -16.33627384 29.99675538 -13.3125 32.875 C-9.45223189 33.99798709 -7.27446793 34.23841011 -3.5 32.8125 C-0.0914458 29.79349485 0.50017884 26.93218774 0.90625 22.47265625 C1.09588305 17.21824058 0.79810065 13.31871522 -2.3125 8.875 C-6.99898826 5.54910511 -10.88683692 6.73044991 -15.3125 9.875 Z " fill="#161616" transform="translate(241.3125,87.125)"/>
<path d="M0 0 C3.37470504 -0.11689626 6.7488843 -0.18747934 10.125 -0.25 C11.07632812 -0.28351562 12.02765625 -0.31703125 13.0078125 -0.3515625 C19.03040345 -0.4352096 22.43277455 -0.04108107 27 4 C29.43917945 7.54074436 30.02130566 9.37148306 29.875 13.6875 C29.03701613 16.8598675 28.58355457 18.09041619 26 20 C26.268125 20.61875 26.53625 21.2375 26.8125 21.875 C31.52981651 34.28899083 31.52981651 34.28899083 31 41 C28.36 41 25.72 41 23 41 C21.2664169 37.21763686 19.854197 33.6878011 18.9375 29.625 C18.628125 28.42875 18.31875 27.2325 18 26 C15.70370006 24.85185003 13.92301914 24.69230191 11.375 24.4375 C9.93125 24.293125 8.4875 24.14875 7 24 C7 29.61 7 35.22 7 41 C4.36 41 1.72 41 -1 41 C-1.02467609 35.48242521 -1.04284856 29.96488239 -1.05493164 24.44726562 C-1.05996763 22.56933025 -1.06679671 20.6913988 -1.07543945 18.81347656 C-1.08753713 16.11782868 -1.09323557 13.42223253 -1.09765625 10.7265625 C-1.10281754 9.88380768 -1.10797882 9.04105286 -1.11329651 8.17276001 C-1.11387171 2.22774341 -1.11387171 2.22774341 0 0 Z M7 8 C7 10.97 7 13.94 7 17 C8.79158489 17.02696365 10.58328473 17.04637917 12.375 17.0625 C13.87160156 17.07990234 13.87160156 17.07990234 15.3984375 17.09765625 C17.98432453 17.18006602 17.98432453 17.18006602 20 16 C20.65772428 12.97065509 20.65772428 12.97065509 21 10 C17.57905758 7.71937172 16.31812778 7.78074993 12.3125 7.875 C11.31863281 7.89304687 10.32476562 7.91109375 9.30078125 7.9296875 C8.54152344 7.95289063 7.78226562 7.97609375 7 8 Z " fill="#161616" transform="translate(336,37)"/>
<path d="M0 0 C2.97 0 5.94 0 9 0 C9.01981934 0.82725586 9.03963867 1.65451172 9.06005859 2.50683594 C9.15531212 6.25487806 9.26499109 10.00236317 9.375 13.75 C9.4059375 15.05195312 9.436875 16.35390625 9.46875 17.6953125 C9.50742188 18.94570313 9.54609375 20.19609375 9.5859375 21.484375 C9.6173584 22.63647461 9.6487793 23.78857422 9.68115234 24.97558594 C9.9879311 27.88552102 10.32804724 29.61752003 12 32 C14.75078884 32.91692961 16.35948913 33.10886083 19.1875 33.0625 C20.445625 33.041875 21.70375 33.02125 23 33 C23.02505615 32.03586182 23.0501123 31.07172363 23.07592773 30.07836914 C23.16985306 26.51312158 23.27010939 22.94807567 23.37231445 19.38305664 C23.41571985 17.83785711 23.45739071 16.29260786 23.49731445 14.74731445 C23.55488199 12.53060904 23.61861424 10.3141552 23.68359375 8.09765625 C23.70866249 7.05545677 23.70866249 7.05545677 23.73423767 5.99220276 C23.88612829 1.11387171 23.88612829 1.11387171 25 0 C28.5 -0.125 28.5 -0.125 32 0 C34.76009814 2.76009814 33.32239477 12.28526749 33.35009766 16.18164062 C33.36663113 17.88685784 33.39388703 19.59200649 33.43212891 21.296875 C33.48701058 23.75557399 33.50878989 26.21264524 33.5234375 28.671875 C33.54610687 29.43038757 33.56877625 30.18890015 33.59213257 30.97039795 C33.57635527 34.94036661 33.15595717 36.79619329 30.71704102 39.98339844 C28.11374978 41.91557434 27.14832523 42.62816225 24.00390625 42.59375 C23.28009766 42.59117188 22.55628906 42.58859375 21.81054688 42.5859375 C21.06869141 42.55757812 20.32683594 42.52921875 19.5625 42.5 C18.82451172 42.50257812 18.08652344 42.50515625 17.32617188 42.5078125 C12.53327327 42.42260541 9.13962837 41.6213515 5 39 C0.52674205 33.31775341 -0.12875186 29.35542332 -0.09765625 22.265625 C-0.09443359 20.97011719 -0.09121094 19.67460938 -0.08789062 18.33984375 C-0.07953598 16.97656183 -0.07107104 15.61328058 -0.0625 14.25 C-0.05748168 12.87109535 -0.05291935 11.49218896 -0.04882812 10.11328125 C-0.03704093 6.74214341 -0.02058635 3.37109372 0 0 Z " fill="#161616" transform="translate(169,37)"/>
<path d="M0 0 C1.39508789 0.00773437 1.39508789 0.00773437 2.81835938 0.015625 C4.2637207 0.0465625 4.2637207 0.0465625 5.73828125 0.078125 C6.71345703 0.08328125 7.68863281 0.0884375 8.69335938 0.09375 C15.89660945 0.1739532 15.89660945 0.1739532 17.05078125 1.328125 C17.17578125 4.328125 17.17578125 4.328125 17.05078125 7.328125 C15.53657124 8.84233501 14.12605357 8.54122356 12.015625 8.64453125 C11.20673828 8.68642578 10.39785156 8.72832031 9.56445312 8.77148438 C8.28924805 8.83045898 8.28924805 8.83045898 6.98828125 8.890625 C5.70727539 8.95540039 5.70727539 8.95540039 4.40039062 9.02148438 C2.28406088 9.12789202 0.16744312 9.22854231 -1.94921875 9.328125 C-2.27921875 11.638125 -2.60921875 13.948125 -2.94921875 16.328125 C2.99078125 16.328125 8.93078125 16.328125 15.05078125 16.328125 C15.05078125 18.638125 15.05078125 20.948125 15.05078125 23.328125 C9.11078125 23.328125 3.17078125 23.328125 -2.94921875 23.328125 C-2.61921875 26.298125 -2.28921875 29.268125 -1.94921875 32.328125 C4.32078125 32.658125 10.59078125 32.988125 17.05078125 33.328125 C17.05078125 35.968125 17.05078125 38.608125 17.05078125 41.328125 C13.32202737 41.47372695 9.59400691 41.56229543 5.86328125 41.640625 C4.28063477 41.7034668 4.28063477 41.7034668 2.66601562 41.76757812 C-5.18219088 41.89136687 -5.18219088 41.89136687 -9.125 38.99609375 C-12.95241939 33.39839045 -12.16973706 27.4980594 -12.19921875 20.953125 C-12.21984375 19.81617187 -12.24046875 18.67921875 -12.26171875 17.5078125 C-12.266875 16.40953125 -12.27203125 15.31125 -12.27734375 14.1796875 C-12.28668945 13.17760254 -12.29603516 12.17551758 -12.30566406 11.14306641 C-11.77312498 6.93746667 -10.10727417 4.43304204 -7.07104492 1.53613281 C-4.51673118 0.08189919 -2.92600019 -0.03207788 0 0 Z " fill="#161616" transform="translate(313.94921875,36.671875)"/>
<path d="M0 0 C1.91015625 0.23046875 1.91015625 0.23046875 3.91015625 2.23046875 C4.71630859 4.0871582 4.71630859 4.0871582 5.49609375 6.34375 C5.92994385 7.58874268 5.92994385 7.58874268 6.37255859 8.85888672 C6.67371582 9.74463379 6.97487305 10.63038086 7.28515625 11.54296875 C7.59533691 12.44418457 7.90551758 13.34540039 8.22509766 14.27392578 C14.70496762 33.21950903 14.70496762 33.21950903 15.91015625 41.23046875 C12.94015625 41.23046875 9.97015625 41.23046875 6.91015625 41.23046875 C6.25015625 38.26046875 5.59015625 35.29046875 4.91015625 32.23046875 C0.29015625 32.23046875 -4.32984375 32.23046875 -9.08984375 32.23046875 C-9.23421875 33.34421875 -9.37859375 34.45796875 -9.52734375 35.60546875 C-10.08984375 39.23046875 -10.08984375 39.23046875 -11.08984375 41.23046875 C-14.05984375 41.23046875 -17.02984375 41.23046875 -20.08984375 41.23046875 C-19.51057257 35.98210147 -18.24708022 31.31695414 -16.40234375 26.36328125 C-16.13977783 25.64308807 -15.87721191 24.9228949 -15.60668945 24.18087769 C-15.05514355 22.67213738 -14.50032741 21.16458888 -13.94238281 19.65820312 C-13.08554106 17.34384705 -12.23924627 15.02583759 -11.39453125 12.70703125 C-10.85607535 11.23805876 -10.31703392 9.76930073 -9.77734375 8.30078125 C-9.52315674 7.6060672 -9.26896973 6.91135315 -9.00708008 6.19558716 C-6.8036637 0.26252706 -6.43722503 0.12851084 0 0 Z M-3.08984375 12.23046875 C-3.29480469 13.00132813 -3.49976563 13.7721875 -3.7109375 14.56640625 C-3.98035156 15.56929687 -4.24976563 16.5721875 -4.52734375 17.60546875 C-4.79417969 18.60320313 -5.06101562 19.6009375 -5.3359375 20.62890625 C-6.08984375 23.23046875 -6.08984375 23.23046875 -7.08984375 25.23046875 C-4.11984375 25.23046875 -1.14984375 25.23046875 1.91015625 25.23046875 C1.46020868 23.43667777 0.99991482 21.64547947 0.53515625 19.85546875 C0.27992188 18.85773437 0.0246875 17.86 -0.23828125 16.83203125 C-0.91388694 14.1050586 -0.91388694 14.1050586 -3.08984375 12.23046875 Z " fill="#161616" transform="translate(421.08984375,36.76953125)"/>
<path d="M0 0 C2.31 0 4.62 0 7 0 C7.01981934 0.88260498 7.03963867 1.76520996 7.06005859 2.67456055 C7.13837866 5.96421957 7.22507855 9.25343964 7.31738281 12.54272461 C7.35555149 13.9635373 7.39042513 15.38444263 7.421875 16.80541992 C7.46779065 18.85368855 7.52573805 20.90132608 7.5859375 22.94921875 C7.6173584 24.17987061 7.6487793 25.41052246 7.68115234 26.6784668 C7.98892628 29.8846417 8.53526827 32.1463434 10 35 C13.30751395 37.17055603 16.35012359 37.07723104 20.1875 37.04296875 C21.53908203 37.03366333 21.53908203 37.03366333 22.91796875 37.02416992 C23.60503906 37.01619385 24.29210937 37.00821777 25 37 C24.99214478 35.37203491 24.99214478 35.37203491 24.98413086 33.71118164 C24.96608164 29.69882018 24.95456829 25.68646233 24.94506836 21.67407227 C24.94002796 19.93480832 24.9331957 18.19554864 24.92456055 16.45629883 C24.91248208 13.96174063 24.90676892 11.46723827 24.90234375 8.97265625 C24.89718246 8.19036148 24.89202118 7.40806671 24.88670349 6.60206604 C24.88650774 4.73432886 24.93800306 2.86670796 25 1 C26 0 26 0 29.5625 -0.0625 C30.696875 -0.041875 31.83125 -0.02125 33 0 C33.07410115 5.78406969 33.12857885 11.56786371 33.16479492 17.35229492 C33.17989082 19.32044283 33.20036948 21.28855706 33.22631836 23.2565918 C33.26266649 26.08390612 33.27971814 28.9107761 33.29296875 31.73828125 C33.30845261 32.61962234 33.32393646 33.50096344 33.33988953 34.40901184 C33.34011612 35.22963608 33.34034271 36.05026031 33.34057617 36.89575195 C33.34723801 37.61745071 33.35389984 38.33914948 33.36076355 39.0827179 C32.89244653 41.57159419 31.96836703 42.45536871 30 44 C27.81103516 44.38818359 27.81103516 44.38818359 25.2890625 44.3984375 C23.91621094 44.40423828 23.91621094 44.40423828 22.515625 44.41015625 C21.08476563 44.39275391 21.08476563 44.39275391 19.625 44.375 C18.67882812 44.38660156 17.73265625 44.39820313 16.7578125 44.41015625 C7.67466604 44.37188457 7.67466604 44.37188457 4 41 C0.52760042 35.8686903 -0.57264562 32.11737454 -0.390625 25.87890625 C-0.38496521 25.13414536 -0.37930542 24.38938446 -0.37347412 23.62205505 C-0.3512735 21.2681862 -0.3011137 18.9159003 -0.25 16.5625 C-0.22991366 14.95640236 -0.21166664 13.3502806 -0.1953125 11.74414062 C-0.15146309 7.8288271 -0.08255471 3.9146809 0 0 Z " fill="#FFF2F2" transform="translate(33,59)"/>
<path d="M0 0 C0.928125 0.495 1.85625 0.99 2.8125 1.5 C2.4825 3.81 2.1525 6.12 1.8125 8.5 C-3.7975 8.17 -9.4075 7.84 -15.1875 7.5 C-14.78437656 12.28858005 -14.78437656 12.28858005 -12.65283203 13.73852539 C-12.00685059 14.02203857 -11.36086914 14.30555176 -10.6953125 14.59765625 C-9.99019531 14.92443359 -9.28507812 15.25121094 -8.55859375 15.58789062 C-7.44677734 16.07032227 -7.44677734 16.07032227 -6.3125 16.5625 C2.71868293 20.57018663 2.71868293 20.57018663 4.8125 24.5 C5.83260241 28.43468072 6.03392411 30.79421065 4.8125 34.6875 C2.28202788 38.24597642 -0.0421469 40.24576496 -4.1875 41.5 C-11.82734355 42.36617335 -18.2349184 41.7718031 -25.1875 38.5 C-24.8575 36.19 -24.5275 33.88 -24.1875 31.5 C-21.23895442 30.32058177 -20.05217066 30.5416398 -16.9375 31.5 C-12.45381109 32.69565037 -9.71158355 32.29369887 -5.1875 31.5 C-5.1875 29.85 -5.1875 28.2 -5.1875 26.5 C-6.74210937 25.70335937 -6.74210937 25.70335937 -8.328125 24.890625 C-9.69812127 24.17747626 -11.06790164 23.46391264 -12.4375 22.75 C-13.11941406 22.40195312 -13.80132812 22.05390625 -14.50390625 21.6953125 C-18.26107597 19.7255342 -21.55344817 17.92559771 -24.1875 14.5 C-25.25606869 10.10786838 -24.73394974 6.45122732 -22.5 2.5625 C-16.44011221 -2.84226479 -7.30596622 -3.1396311 0 0 Z " fill="#161616" transform="translate(395.1875,37.5)"/>
<path d="M0 0 C1.8984375 0.828125 1.8984375 0.828125 4.5859375 2.328125 C3.9259375 4.638125 3.2659375 6.948125 2.5859375 9.328125 C1.59851563 9.24433594 0.61109375 9.16054687 -0.40625 9.07421875 C-1.68757813 8.97238281 -2.96890625 8.87054688 -4.2890625 8.765625 C-5.56523437 8.66121094 -6.84140625 8.55679688 -8.15625 8.44921875 C-11.30050192 8.07129133 -11.30050192 8.07129133 -13.4140625 9.328125 C-13.43758163 11.23549971 -13.43758163 11.23549971 -12.4140625 13.328125 C-10.13670631 14.67155892 -8.00507956 15.77009437 -5.6015625 16.828125 C-1.25330003 18.77749958 2.55492447 20.51728823 5.5859375 24.328125 C6.72613823 29.04095469 7.03224426 31.18047906 5.2734375 35.703125 C2.51537685 39.99344156 2.51537685 39.99344156 -0.1171875 40.94140625 C-8.2088551 42.30377886 -16.62145936 41.821758 -24.4140625 39.328125 C-23.5390625 33.578125 -23.5390625 33.578125 -22.4140625 31.328125 C-21.76179688 31.4725 -21.10953125 31.616875 -20.4375 31.765625 C-13.49001592 33.28175709 -13.49001592 33.28175709 -6.4140625 33.328125 C-5.4240625 32.668125 -4.4340625 32.008125 -3.4140625 31.328125 C-3.46209692 28.89223543 -3.46209692 28.89223543 -4.4140625 26.328125 C-6.99590775 24.80588946 -6.99590775 24.80588946 -10.1640625 23.828125 C-16.19972101 21.54145628 -19.00002647 19.61999231 -22.7890625 14.453125 C-23.78165109 11.07832379 -23.30288883 8.70566507 -22.4140625 5.328125 C-16.4662375 -1.68725834 -8.81895601 -2.45446672 0 0 Z " fill="#161616" transform="translate(387.4140625,86.671875)"/>
<path d="M0 0 C2.64 0 5.28 0 8 0 C11.3 9.57 14.6 19.14 18 29 C18.99 25.04 19.98 21.08 21 17 C22.02161269 13.88793411 23.0591857 10.82012929 24.1875 7.75 C24.59645508 6.61498047 24.59645508 6.61498047 25.01367188 5.45703125 C25.67057745 3.6361351 26.33448981 1.81776894 27 0 C29.64 0 32.28 0 35 0 C35.29470788 5.47721038 34.33508675 9.80103802 32.41015625 14.8671875 C32.01418495 15.94747726 32.01418495 15.94747726 31.61021423 17.04959106 C31.05471186 18.559089 30.49388196 20.06663612 29.92797852 21.57226562 C29.05861859 23.88532707 28.20471269 26.20363784 27.35351562 28.5234375 C26.81077181 29.99251142 26.26718226 31.46127323 25.72265625 32.9296875 C25.46533218 33.62440155 25.20800812 34.3191156 24.94288635 35.03488159 C23.11839291 39.88160709 23.11839291 39.88160709 22 41 C16.20411664 41.46740995 16.20411664 41.46740995 14 41 C10.4427597 37.6318788 9.16952694 32.57173001 7.5625 28.0625 C7.25755615 27.21800293 6.9526123 26.37350586 6.63842773 25.50341797 C-0.28046344 6.17019565 -0.28046344 6.17019565 0 0 Z " fill="#161616" transform="translate(263,37)"/>
<path d="M0 0 C4.17813746 1.76410248 6.46622997 4.27754773 9 8 C9.89779565 12.94716361 10.18482488 18.47112477 8.01171875 23.109375 C5.29287589 26.51003294 2.12827703 28.70683841 -2.18359375 29.30078125 C-6.96074969 29.32561915 -10.17486424 29.1693982 -14 26 C-18.14729626 21.27669037 -19.36674688 18.50508991 -19.27734375 12.31640625 C-18.69135501 7.42216228 -15.86223021 4.76197089 -12.3125 1.625 C-8.03682263 -0.47250211 -4.67846773 -0.71043399 0 0 Z M-7 5 C-7 5.33 -7 5.66 -7 6 C-5.35 6 -3.7 6 -2 6 C-2 5.67 -2 5.34 -2 5 C-3.65 5 -5.3 5 -7 5 Z M1 7 C0.85024761 14.05651252 0.85024761 14.05651252 2 21 C4.66053508 18.33946492 4.78483954 16.72944805 5 13 C3.67570727 9.68194858 3.67570727 9.68194858 2 7 C1.67 7 1.34 7 1 7 Z M-12 8 C-14.46324069 11.69486103 -14.38991688 13.63293092 -14 18 C-13.01 18.99 -12.02 19.98 -11 21 C-11 16.71 -11 12.42 -11 8 C-11.33 8 -11.66 8 -12 8 Z M-5 17 C-5.0825 17.61875 -5.165 18.2375 -5.25 18.875 C-6 21 -6 21 -8.0625 22.25 C-9.0215625 22.62125 -9.0215625 22.62125 -10 23 C-8.741875 23.20625 -7.48375 23.4125 -6.1875 23.625 C-5.47980469 23.74101563 -4.77210938 23.85703125 -4.04296875 23.9765625 C-1.68244176 24.19577848 -1.68244176 24.19577848 1 22 C0.01 21.67 -0.98 21.34 -2 21 C-3.1875 18.9375 -3.1875 18.9375 -4 17 C-4.33 17 -4.66 17 -5 17 Z " fill="#161616" transform="translate(491,36)"/>
<path d="M0 0 C10.23 0 20.46 0 31 0 C31 2.64 31 5.28 31 8 C27.37 8 23.74 8 20 8 C20 18.56 20 29.12 20 40 C17.36 40 14.72 40 12 40 C12 29.44 12 18.88 12 8 C8.04 8 4.08 8 0 8 C0 5.36 0 2.72 0 0 Z " fill="#161616" transform="translate(253,87)"/>
<path d="M0 0 C2.64 0 5.28 0 8 0 C8.02505615 0.93384521 8.0501123 1.86769043 8.07592773 2.82983398 C8.17086928 6.28325189 8.27011258 9.7364896 8.37231445 13.18969727 C8.41571813 14.68639269 8.45738913 16.18313939 8.49731445 17.67993164 C8.55488616 19.82714312 8.61861716 21.97409521 8.68359375 24.12109375 C8.72025146 25.4145874 8.75690918 26.70808105 8.79467773 28.04077148 C8.6667278 30.88555008 8.6667278 30.88555008 10 32 C11.32886073 32.14386104 12.66448587 32.22676288 14 32.28125 C14.804375 32.31863281 15.60875 32.35601562 16.4375 32.39453125 C17.283125 32.42933594 18.12875 32.46414062 19 32.5 C20.66684971 32.56860509 22.33353774 32.64130223 24 32.71875 C24.7425 32.74904297 25.485 32.77933594 26.25 32.81054688 C28 33 28 33 29 34 C29.125 37 29.125 37 29 40 C26.57224421 42.42775579 20.50552396 41.32966992 17.25 41.375 C16.24710937 41.41238281 15.24421875 41.44976562 14.2109375 41.48828125 C6.75590025 41.57726711 6.75590025 41.57726711 2.859375 38.6015625 C-0.15032665 34.39050935 -0.1331126 31.40531041 -0.09765625 26.3671875 C-0.0962413 25.61535187 -0.09482635 24.86351624 -0.09336853 24.08889771 C-0.08776465 21.6842249 -0.07521157 19.27964473 -0.0625 16.875 C-0.0574855 15.24609509 -0.0529225 13.61718873 -0.04882812 11.98828125 C-0.03779397 7.99215173 -0.02052679 3.99609158 0 0 Z " fill="#161616" transform="translate(441,37)"/>
<path d="M0 0 C2.64 0 5.28 0 8 0 C8 13.53 8 27.06 8 41 C5.36 41 2.72 41 0 41 C0 27.47 0 13.94 0 0 Z " fill="#161616" transform="translate(250,37)"/>
</svg>
